<mxfile host="65bd71144e">
    <diagram id="fPs62qkv7y0Zu4GkwDsp" name="Seite-1">
        <mxGraphModel dx="1231" dy="791" grid="1" gridSize="10" guides="1" tooltips="1" connect="1" arrows="1" fold="1" page="1" pageScale="1" pageWidth="827" pageHeight="1169" math="0" shadow="0">
            <root>
                <mxCell id="0"/>
                <mxCell id="1" parent="0"/>
                <mxCell id="61" value="Website" style="swimlane;rounded=0;shadow=0;glass=0;sketch=0;gradientColor=none;" vertex="1" parent="1">
                    <mxGeometry x="80" y="80" width="520" height="1000" as="geometry">
                        <mxRectangle x="90" y="160" width="100" height="30" as="alternateBounds"/>
                    </mxGeometry>
                </mxCell>
                <mxCell id="30" value="Landing Page" style="swimlane;startSize=20;horizontal=1;childLayout=flowLayout;flowOrientation=north;resizable=0;interRankCellSpacing=50;containerType=tree;fontSize=12;gradientColor=none;flipH=0;flipV=0;swimlaneLine=1;rounded=0;shadow=0;glass=0;" vertex="1" parent="61">
                    <mxGeometry x="40" y="40" width="140" height="100" as="geometry"/>
                </mxCell>
                <mxCell id="31" value="Landing Page" style="whiteSpace=wrap;html=1;" vertex="1" parent="30">
                    <mxGeometry x="20" y="40" width="100" height="40" as="geometry"/>
                </mxCell>
                <mxCell id="42" value="Privatnutzer" style="swimlane;startSize=20;horizontal=1;childLayout=flowLayout;flowOrientation=north;resizable=0;interRankCellSpacing=50;containerType=tree;fontSize=12;" vertex="1" parent="61">
                    <mxGeometry x="200" y="200" width="140" height="400" as="geometry"/>
                </mxCell>
                <mxCell id="43" value="Persönliche daten" style="whiteSpace=wrap;html=1;" vertex="1" parent="42">
                    <mxGeometry x="20" y="40" width="100" height="40" as="geometry"/>
                </mxCell>
                <mxCell id="44" value="Anzahl an benutzen Kathetern pro Tag" style="whiteSpace=wrap;html=1;" vertex="1" parent="42">
                    <mxGeometry x="20" y="130" width="100" height="58.5" as="geometry"/>
                </mxCell>
                <mxCell id="45" value="" style="html=1;rounded=1;curved=0;sourcePerimeterSpacing=0;targetPerimeterSpacing=0;startSize=6;endSize=6;noEdgeStyle=1;orthogonal=1;" edge="1" parent="42" source="43" target="44">
                    <mxGeometry relative="1" as="geometry">
                        <Array as="points">
                            <mxPoint x="70" y="92"/>
                            <mxPoint x="70" y="118"/>
                        </Array>
                    </mxGeometry>
                </mxCell>
                <mxCell id="46" value="Welche Produkte genutzt werden" style="whiteSpace=wrap;html=1;" vertex="1" parent="42">
                    <mxGeometry x="20" y="238.5" width="100" height="51.5" as="geometry"/>
                </mxCell>
                <mxCell id="47" value="" style="html=1;rounded=1;curved=0;sourcePerimeterSpacing=0;targetPerimeterSpacing=0;startSize=6;endSize=6;noEdgeStyle=1;orthogonal=1;" edge="1" parent="42" source="44" target="46">
                    <mxGeometry relative="1" as="geometry">
                        <Array as="points">
                            <mxPoint x="70" y="200.5"/>
                            <mxPoint x="70" y="226.5"/>
                        </Array>
                    </mxGeometry>
                </mxCell>
                <mxCell id="48" value="Ergebnisseite" style="whiteSpace=wrap;html=1;" vertex="1" parent="42">
                    <mxGeometry x="20" y="340" width="100" height="40" as="geometry"/>
                </mxCell>
                <mxCell id="49" style="edgeStyle=none;html=1;exitX=0.5;exitY=1;exitDx=0;exitDy=0;entryX=0.5;entryY=0;entryDx=0;entryDy=0;noEdgeStyle=1;orthogonal=1;" edge="1" parent="42" source="46" target="48">
                    <mxGeometry relative="1" as="geometry">
                        <Array as="points">
                            <mxPoint x="70" y="302"/>
                            <mxPoint x="70" y="328"/>
                        </Array>
                    </mxGeometry>
                </mxCell>
                <mxCell id="50" value="HCP" style="swimlane;startSize=20;horizontal=1;childLayout=flowLayout;flowOrientation=north;resizable=0;interRankCellSpacing=50;containerType=tree;fontSize=12;gradientColor=none;flipH=0;flipV=0;swimlaneLine=1;rounded=0;shadow=0;glass=0;resizeHeight=0;resizeWidth=0;fillColor=default;" vertex="1" parent="61">
                    <mxGeometry x="40" y="200" width="140" height="400" as="geometry"/>
                </mxCell>
                <mxCell id="51" value="Persönliche daten" style="whiteSpace=wrap;html=1;" vertex="1" parent="50">
                    <mxGeometry x="20" y="40" width="100" height="40" as="geometry"/>
                </mxCell>
                <mxCell id="52" value="Anzahl an benutzen Kathetern pro Tag" style="whiteSpace=wrap;html=1;" vertex="1" parent="50">
                    <mxGeometry x="20" y="130" width="100" height="58.5" as="geometry"/>
                </mxCell>
                <mxCell id="53" value="" style="html=1;rounded=1;curved=0;sourcePerimeterSpacing=0;targetPerimeterSpacing=0;startSize=6;endSize=6;noEdgeStyle=1;orthogonal=1;" edge="1" parent="50" source="51" target="52">
                    <mxGeometry relative="1" as="geometry">
                        <Array as="points">
                            <mxPoint x="70" y="92"/>
                            <mxPoint x="70" y="118"/>
                        </Array>
                    </mxGeometry>
                </mxCell>
                <mxCell id="54" value="Welche Produkte genutzt werden" style="whiteSpace=wrap;html=1;" vertex="1" parent="50">
                    <mxGeometry x="20" y="238.5" width="100" height="51.5" as="geometry"/>
                </mxCell>
                <mxCell id="55" value="" style="html=1;rounded=1;curved=0;sourcePerimeterSpacing=0;targetPerimeterSpacing=0;startSize=6;endSize=6;noEdgeStyle=1;orthogonal=1;" edge="1" parent="50" source="52" target="54">
                    <mxGeometry relative="1" as="geometry">
                        <Array as="points">
                            <mxPoint x="70" y="200.5"/>
                            <mxPoint x="70" y="226.5"/>
                        </Array>
                    </mxGeometry>
                </mxCell>
                <mxCell id="56" value="Ergebnisseite" style="whiteSpace=wrap;html=1;" vertex="1" parent="50">
                    <mxGeometry x="20" y="340" width="100" height="40" as="geometry"/>
                </mxCell>
                <mxCell id="57" style="edgeStyle=none;html=1;exitX=0.5;exitY=1;exitDx=0;exitDy=0;entryX=0.5;entryY=0;entryDx=0;entryDy=0;noEdgeStyle=1;orthogonal=1;" edge="1" parent="50" source="54" target="56">
                    <mxGeometry relative="1" as="geometry">
                        <Array as="points">
                            <mxPoint x="70" y="302"/>
                            <mxPoint x="70" y="328"/>
                        </Array>
                    </mxGeometry>
                </mxCell>
                <mxCell id="58" style="edgeStyle=none;html=1;exitX=0.5;exitY=1;exitDx=0;exitDy=0;entryX=0.557;entryY=-0.002;entryDx=0;entryDy=0;entryPerimeter=0;dashed=1;dashPattern=8 8;" edge="1" parent="61" source="31" target="50">
                    <mxGeometry relative="1" as="geometry"/>
                </mxCell>
                <mxCell id="59" style="edgeStyle=none;html=1;exitX=0.5;exitY=1;exitDx=0;exitDy=0;entryX=0.5;entryY=0;entryDx=0;entryDy=0;dashed=1;dashPattern=8 8;" edge="1" parent="61" source="31" target="42">
                    <mxGeometry relative="1" as="geometry"/>
                </mxCell>
                <mxCell id="62" value="Header" style="swimlane;fontStyle=0;childLayout=stackLayout;horizontal=1;startSize=26;fillColor=none;horizontalStack=0;resizeParent=1;resizeParentMax=0;resizeLast=0;collapsible=1;marginBottom=0;html=1;rounded=0;shadow=0;glass=0;sketch=0;" vertex="1" parent="61">
                    <mxGeometry x="320" y="40" width="140" height="78" as="geometry">
                        <mxRectangle x="410" y="60" width="60" height="30" as="alternateBounds"/>
                    </mxGeometry>
                </mxCell>
                <mxCell id="63" value="Moduswahl" style="text;strokeColor=none;fillColor=none;align=left;verticalAlign=top;spacingLeft=4;spacingRight=4;overflow=hidden;rotatable=0;points=[[0,0.5],[1,0.5]];portConstraint=eastwest;whiteSpace=wrap;html=1;rounded=0;shadow=0;glass=0;sketch=0;" vertex="1" parent="62">
                    <mxGeometry y="26" width="140" height="26" as="geometry"/>
                </mxCell>
                <mxCell id="64" value="Sprachauswahl" style="text;strokeColor=none;fillColor=none;align=left;verticalAlign=top;spacingLeft=4;spacingRight=4;overflow=hidden;rotatable=0;points=[[0,0.5],[1,0.5]];portConstraint=eastwest;whiteSpace=wrap;html=1;rounded=0;shadow=0;glass=0;sketch=0;" vertex="1" parent="62">
                    <mxGeometry y="52" width="140" height="26" as="geometry"/>
                </mxCell>
                <mxCell id="66" style="edgeStyle=none;html=1;entryX=0.5;entryY=0;entryDx=0;entryDy=0;dashed=1;dashPattern=8 8;exitX=0;exitY=0.5;exitDx=0;exitDy=0;" edge="1" parent="61" source="63" target="42">
                    <mxGeometry relative="1" as="geometry"/>
                </mxCell>
                <mxCell id="67" style="edgeStyle=none;html=1;entryX=0.5;entryY=0;entryDx=0;entryDy=0;dashed=1;dashPattern=8 8;exitX=0;exitY=0.5;exitDx=0;exitDy=0;" edge="1" parent="61" source="63" target="50">
                    <mxGeometry relative="1" as="geometry"/>
                </mxCell>
                <mxCell id="68" value="Footer" style="swimlane;fontStyle=0;childLayout=stackLayout;horizontal=1;startSize=26;fillColor=none;horizontalStack=0;resizeParent=1;resizeParentMax=0;resizeLast=0;collapsible=1;marginBottom=0;html=1;rounded=0;shadow=0;glass=0;sketch=0;" vertex="1" parent="61">
                    <mxGeometry x="40" y="640" width="140" height="182" as="geometry">
                        <mxRectangle x="410" y="60" width="60" height="30" as="alternateBounds"/>
                    </mxGeometry>
                </mxCell>
                <mxCell id="69" value="FAQ" style="text;strokeColor=none;fillColor=none;align=left;verticalAlign=top;spacingLeft=4;spacingRight=4;overflow=hidden;rotatable=0;points=[[0,0.5],[1,0.5]];portConstraint=eastwest;whiteSpace=wrap;html=1;rounded=0;shadow=0;glass=0;sketch=0;" vertex="1" parent="68">
                    <mxGeometry y="26" width="140" height="26" as="geometry"/>
                </mxCell>
                <mxCell id="70" value="Cookie Policy" style="text;strokeColor=none;fillColor=none;align=left;verticalAlign=top;spacingLeft=4;spacingRight=4;overflow=hidden;rotatable=0;points=[[0,0.5],[1,0.5]];portConstraint=eastwest;whiteSpace=wrap;html=1;rounded=0;shadow=0;glass=0;sketch=0;" vertex="1" parent="68">
                    <mxGeometry y="52" width="140" height="26" as="geometry"/>
                </mxCell>
                <mxCell id="71" value="Imprint&lt;span style=&quot;color: rgba(0, 0, 0, 0); font-family: monospace; font-size: 0px;&quot;&gt;%3CmxGraphModel%3E%3Croot%3E%3CmxCell%20id%3D%220%22%2F%3E%3CmxCell%20id%3D%221%22%20parent%3D%220%22%2F%3E%3CmxCell%20id%3D%222%22%20value%3D%22Cookie%20Policy%22%20style%3D%22text%3BstrokeColor%3Dnone%3BfillColor%3Dnone%3Balign%3Dleft%3BverticalAlign%3Dtop%3BspacingLeft%3D4%3BspacingRight%3D4%3Boverflow%3Dhidden%3Brotatable%3D0%3Bpoints%3D%5B%5B0%2C0.5%5D%2C%5B1%2C0.5%5D%5D%3BportConstraint%3Deastwest%3BwhiteSpace%3Dwrap%3Bhtml%3D1%3Brounded%3D0%3Bshadow%3D0%3Bglass%3D0%3Bsketch%3D0%3B%22%20vertex%3D%221%22%20parent%3D%221%22%3E%3CmxGeometry%20x%3D%22120%22%20y%3D%22772%22%20width%3D%22140%22%20height%3D%2226%22%20as%3D%22geometry%22%2F%3E%3C%2FmxCell%3E%3C%2Froot%3E%3C%2FmxGraphModel%3E&lt;/span&gt;" style="text;strokeColor=none;fillColor=none;align=left;verticalAlign=top;spacingLeft=4;spacingRight=4;overflow=hidden;rotatable=0;points=[[0,0.5],[1,0.5]];portConstraint=eastwest;whiteSpace=wrap;html=1;rounded=0;shadow=0;glass=0;sketch=0;" vertex="1" parent="68">
                    <mxGeometry y="78" width="140" height="26" as="geometry"/>
                </mxCell>
                <mxCell id="74" value="Terms Of Use" style="text;strokeColor=none;fillColor=none;align=left;verticalAlign=top;spacingLeft=4;spacingRight=4;overflow=hidden;rotatable=0;points=[[0,0.5],[1,0.5]];portConstraint=eastwest;whiteSpace=wrap;html=1;rounded=0;shadow=0;glass=0;sketch=0;" vertex="1" parent="68">
                    <mxGeometry y="104" width="140" height="26" as="geometry"/>
                </mxCell>
                <mxCell id="72" value="Privacy Policy" style="text;strokeColor=none;fillColor=none;align=left;verticalAlign=top;spacingLeft=4;spacingRight=4;overflow=hidden;rotatable=0;points=[[0,0.5],[1,0.5]];portConstraint=eastwest;whiteSpace=wrap;html=1;rounded=0;shadow=0;glass=0;sketch=0;" vertex="1" parent="68">
                    <mxGeometry y="130" width="140" height="26" as="geometry"/>
                </mxCell>
                <mxCell id="73" value="Terms and Conditions" style="text;strokeColor=none;fillColor=none;align=left;verticalAlign=top;spacingLeft=4;spacingRight=4;overflow=hidden;rotatable=0;points=[[0,0.5],[1,0.5]];portConstraint=eastwest;whiteSpace=wrap;html=1;rounded=0;shadow=0;glass=0;sketch=0;" vertex="1" parent="68">
                    <mxGeometry y="156" width="140" height="26" as="geometry"/>
                </mxCell>
                <mxCell id="75" value="FAQ" style="swimlane;startSize=20;horizontal=1;childLayout=flowLayout;flowOrientation=north;resizable=0;interRankCellSpacing=50;containerType=tree;fontSize=12;gradientColor=none;flipH=0;flipV=0;swimlaneLine=1;rounded=0;shadow=0;glass=0;" vertex="1" parent="61">
                    <mxGeometry x="320" y="640" width="140" height="100" as="geometry"/>
                </mxCell>
                <mxCell id="76" value="FAQ" style="whiteSpace=wrap;html=1;" vertex="1" parent="75">
                    <mxGeometry x="20" y="40" width="100" height="40" as="geometry"/>
                </mxCell>
                <mxCell id="77" value="Cookie Policy" style="swimlane;startSize=20;horizontal=1;childLayout=flowLayout;flowOrientation=north;resizable=0;interRankCellSpacing=50;containerType=tree;fontSize=12;gradientColor=none;flipH=0;flipV=0;swimlaneLine=1;rounded=0;shadow=0;glass=0;" vertex="1" parent="61">
                    <mxGeometry x="320" y="760" width="140" height="100" as="geometry"/>
                </mxCell>
                <mxCell id="78" value="Cookie Policy" style="whiteSpace=wrap;html=1;" vertex="1" parent="77">
                    <mxGeometry x="20" y="40" width="100" height="40" as="geometry"/>
                </mxCell>
                <mxCell id="79" style="edgeStyle=none;html=1;dashed=1;dashPattern=8 8;exitX=1;exitY=0.5;exitDx=0;exitDy=0;entryX=0;entryY=0.25;entryDx=0;entryDy=0;" edge="1" parent="61" source="69" target="75">
                    <mxGeometry relative="1" as="geometry"/>
                </mxCell>
                <mxCell id="80" style="edgeStyle=none;html=1;dashed=1;dashPattern=8 8;exitX=1;exitY=0.5;exitDx=0;exitDy=0;entryX=0;entryY=0.25;entryDx=0;entryDy=0;" edge="1" parent="61" source="70" target="77">
                    <mxGeometry relative="1" as="geometry">
                        <mxPoint x="290" y="820" as="targetPoint"/>
                    </mxGeometry>
                </mxCell>
                <mxCell id="82" value="Exernal Site" style="swimlane;startSize=20;horizontal=1;childLayout=flowLayout;flowOrientation=north;resizable=0;interRankCellSpacing=50;containerType=tree;fontSize=12;gradientColor=none;flipH=0;flipV=0;swimlaneLine=1;rounded=0;shadow=0;glass=0;" vertex="1" parent="1">
                    <mxGeometry x="400" y="960" width="140" height="100" as="geometry"/>
                </mxCell>
                <mxCell id="89" value="..." style="whiteSpace=wrap;html=1;" vertex="1" parent="82">
                    <mxGeometry x="20" y="40" width="100" height="40" as="geometry"/>
                </mxCell>
                <mxCell id="85" style="edgeStyle=none;html=1;dashed=1;dashPattern=8 8;exitX=1;exitY=0.5;exitDx=0;exitDy=0;entryX=0;entryY=0.25;entryDx=0;entryDy=0;" edge="1" parent="1" source="71" target="82">
                    <mxGeometry relative="1" as="geometry">
                        <mxPoint x="410" y="875" as="targetPoint"/>
                        <mxPoint x="270" y="795" as="sourcePoint"/>
                    </mxGeometry>
                </mxCell>
                <mxCell id="86" style="edgeStyle=none;html=1;dashed=1;dashPattern=8 8;exitX=1;exitY=0.5;exitDx=0;exitDy=0;entryX=0;entryY=0.25;entryDx=0;entryDy=0;" edge="1" parent="1" source="72" target="82">
                    <mxGeometry relative="1" as="geometry">
                        <mxPoint x="420" y="885" as="targetPoint"/>
                        <mxPoint x="280" y="805" as="sourcePoint"/>
                    </mxGeometry>
                </mxCell>
                <mxCell id="87" style="edgeStyle=none;html=1;dashed=1;dashPattern=8 8;exitX=1;exitY=0.5;exitDx=0;exitDy=0;entryX=0;entryY=0.25;entryDx=0;entryDy=0;" edge="1" parent="1" source="74" target="82">
                    <mxGeometry relative="1" as="geometry">
                        <mxPoint x="430" y="895" as="targetPoint"/>
                        <mxPoint x="290" y="815" as="sourcePoint"/>
                    </mxGeometry>
                </mxCell>
                <mxCell id="88" style="edgeStyle=none;html=1;dashed=1;dashPattern=8 8;exitX=1;exitY=0.5;exitDx=0;exitDy=0;entryX=0;entryY=0.25;entryDx=0;entryDy=0;" edge="1" parent="1" source="73" target="82">
                    <mxGeometry relative="1" as="geometry">
                        <mxPoint x="440" y="905" as="targetPoint"/>
                        <mxPoint x="300" y="825" as="sourcePoint"/>
                    </mxGeometry>
                </mxCell>
            </root>
        </mxGraphModel>
    </diagram>
</mxfile>